# xmcd
#
# Track frame offsets: 
#        150
#        19829
#        49955
#        70446
#        79863
#        99787
#        117393
#        138942
#        159027
#        190261
#        211790
#        228612
#        251757
#
# Disc length: 3635 seconds
#
# Revision: 0
# Processed by: cddbd v1.5.2PL0 Copyright (c) Steve Scherf et al.
# Submitted via: ExactAudioCopy v0.99pb4
#
DISCID=ac0e310d
DTITLE=Various Artist - This Is Brazil CD3 Nu Brazil
DYEAR=2008
DGENRE=Blues
TTITLE0=AfroReggae feat. Ty and Estelle - Nenhum Motivo Explica A Guerra
TTITLE1=Funk Como Le Gusta - 16 Toneladas (Sixteen Tons)
TTITLE2=Grupo Batuque - Afro Black (Tony Allen Remix)
TTITLE3=Capoeira Experience - Capoeira Funk Power
TTITLE4=Democustico - Summer Of Flora 
TTITLE5=DJ Mam - Anunciacão Revisitada
TTITLE6=Echo Sound System feat. Pyroman, Funk Buia and Jimmy Luv - Todos
TTITLE6=Um
TTITLE7=Mad Zoo feat. Geanine Marques - Shared
TTITLE8=Cosmonautics feat. Cleveland and Watkiss - Brazilian Nights
TTITLE9=Funk Como Le Gusta - Olhos Coloridos (DJ Cucas Jazzy Mix)
TTITLE10=Nina and Chris present Zeep - Have You Ever
TTITLE11=Deeper and Pacific feat. Geanine Marques - In The Summer Breeze
TTITLE12=Mad Zoo feat. Rosy Aragão - As Cores
EXTD=
EXTT0=
EXTT1=
EXTT2=
EXTT3=
EXTT4=
EXTT5=
EXTT6=
EXTT7=
EXTT8=
EXTT9=
EXTT10=
EXTT11=
EXTT12=
PLAYORDER=
